<svg width="102" height="56" viewBox="0 0 102 56" fill="none" xmlns="http://www.w3.org/2000/svg">
<path d="M12.2059 53.0909C12.1476 53.0909 12.0952 53.0734 12.0486 53.0385C12.0136 52.992 11.9961 52.9396 11.9961 52.8814V41.0822C11.9961 41.024 12.0136 40.9774 12.0486 40.9425C12.0952 40.896 12.1476 40.8727 12.2059 40.8727H16.6648C17.574 40.8727 18.3784 41.0298 19.0778 41.344C19.7772 41.6582 20.3193 42.1062 20.704 42.688C21.0887 43.2698 21.281 43.9389 21.281 44.6953V49.2684C21.281 50.0247 21.0887 50.6938 20.704 51.2756C20.3193 51.8574 19.7772 52.3054 19.0778 52.6196C18.3784 52.9338 17.574 53.0909 16.6648 53.0909H12.2059ZM14.8987 50.5251C14.8987 50.5833 14.9279 50.6124 14.9862 50.6124H16.7872C17.2535 50.6124 17.6323 50.4494 17.9238 50.1236C18.2152 49.7862 18.3667 49.3382 18.3784 48.7796V45.184C18.3784 44.6254 18.2268 44.1833 17.9238 43.8574C17.6323 43.52 17.2476 43.3513 16.7697 43.3513H14.9862C14.9279 43.3513 14.8987 43.3804 14.8987 43.4385V50.5251ZM24.1865 43.264C23.7435 43.264 23.3763 43.1244 23.0849 42.8451C22.8051 42.5542 22.6652 42.1876 22.6652 41.7454C22.6652 41.2916 22.8051 40.9251 23.0849 40.6458C23.3763 40.3665 23.7435 40.2269 24.1865 40.2269C24.6294 40.2269 24.9908 40.3665 25.2706 40.6458C25.562 40.9251 25.7077 41.2916 25.7077 41.7454C25.7077 42.176 25.562 42.5367 25.2706 42.8276C24.9908 43.1185 24.6294 43.264 24.1865 43.264ZM22.9275 53.0909C22.8692 53.0909 22.8168 53.0734 22.7701 53.0385C22.7352 52.992 22.7177 52.9396 22.7177 52.8814V44.2764C22.7177 44.2182 22.7352 44.1716 22.7701 44.1367C22.8168 44.0902 22.8692 44.0669 22.9275 44.0669H25.4105C25.4688 44.0669 25.5154 44.0902 25.5504 44.1367C25.597 44.1716 25.6203 44.2182 25.6203 44.2764V52.8814C25.6203 52.9396 25.597 52.992 25.5504 53.0385C25.5154 53.0734 25.4688 53.0909 25.4105 53.0909H22.9275ZM30.9693 53.2305C30.1417 53.2305 29.4189 53.12 28.8011 52.8989C28.1833 52.6662 27.7053 52.3462 27.3673 51.9389C27.0409 51.52 26.8777 51.0429 26.8777 50.5076V50.3156C26.8777 50.2574 26.8952 50.2109 26.9301 50.176C26.9768 50.1294 27.0292 50.1062 27.0875 50.1062H29.4481C29.5064 50.1062 29.553 50.1294 29.588 50.176C29.6346 50.2109 29.6579 50.2574 29.6579 50.3156C29.6579 50.5367 29.7803 50.7229 30.0251 50.8742C30.2699 51.0138 30.5788 51.0836 30.9518 51.0836C31.2782 51.0836 31.5347 51.0313 31.7212 50.9265C31.9194 50.8102 32.0185 50.6589 32.0185 50.4727C32.0185 50.2865 31.9136 50.1527 31.7037 50.0713C31.5056 49.9782 31.1792 49.8909 30.7245 49.8094C29.9901 49.6698 29.3956 49.5011 28.941 49.3033C28.3465 49.0589 27.8744 48.7564 27.5246 48.3956C27.1749 48.0233 27.0001 47.5171 27.0001 46.8771C27.0001 45.9694 27.3498 45.2538 28.0492 44.7302C28.7603 44.1949 29.6929 43.9273 30.8469 43.9273C31.628 43.9273 32.3099 44.0553 32.8928 44.3113C33.4873 44.5556 33.9477 44.9047 34.2741 45.3585C34.6005 45.8124 34.7637 46.336 34.7637 46.9294C34.7637 46.9876 34.7404 47.04 34.6938 47.0865C34.6588 47.1214 34.6122 47.1389 34.5539 47.1389H32.2633C32.205 47.1389 32.1525 47.1214 32.1059 47.0865C32.0709 47.04 32.0534 46.9876 32.0534 46.9294C32.0534 46.7084 31.9485 46.528 31.7387 46.3884C31.5289 46.2487 31.2433 46.1789 30.8818 46.1789C30.5555 46.1789 30.2874 46.2371 30.0776 46.3534C29.8794 46.4582 29.7803 46.6094 29.7803 46.8073C29.7803 47.0051 29.891 47.1505 30.1125 47.2436C30.334 47.3251 30.707 47.4182 31.2316 47.5229C31.9077 47.6625 32.3798 47.7731 32.648 47.8545C33.3707 48.0873 33.9302 48.4014 34.3266 48.7971C34.7346 49.1927 34.9386 49.7222 34.9386 50.3854C34.9386 51.2931 34.5772 51.9971 33.8545 52.4974C33.1434 52.9862 32.1817 53.2305 30.9693 53.2305ZM40.2148 53.2305C39.2589 53.2305 38.4196 52.992 37.6968 52.5149C36.9857 52.0378 36.4786 51.3804 36.1756 50.5425C35.9541 49.984 35.8433 49.3149 35.8433 48.5353C35.8433 47.7556 35.9541 47.0865 36.1756 46.528C36.467 45.7134 36.9741 45.0793 37.6968 44.6254C38.4196 44.16 39.2589 43.9273 40.2148 43.9273C41.1823 43.9273 42.0333 44.1658 42.7677 44.6429C43.5021 45.12 43.9975 45.7251 44.254 46.4582C44.3356 46.6676 44.388 46.8945 44.4113 47.1389C44.4113 47.2669 44.3472 47.3425 44.219 47.3658L41.7885 47.7324H41.7535C41.6486 47.7324 41.5786 47.6742 41.5437 47.5578L41.5087 47.4007C41.4854 47.3076 41.4621 47.2262 41.4388 47.1564C41.3338 46.9353 41.1706 46.7549 40.9492 46.6153C40.7393 46.4756 40.4887 46.4058 40.1973 46.4058C39.5794 46.4058 39.1714 46.6793 38.9733 47.2262C38.845 47.552 38.7809 47.9942 38.7809 48.5527C38.7809 49.0531 38.8392 49.4894 38.9558 49.8618C39.1773 50.4553 39.5911 50.752 40.1973 50.752C40.5004 50.752 40.7626 50.6764 40.9841 50.5251C41.2056 50.3622 41.363 50.1353 41.4562 49.8444C41.4679 49.8211 41.4737 49.7862 41.4737 49.7396C41.4854 49.728 41.4912 49.7047 41.4912 49.6698C41.5262 49.5302 41.6078 49.472 41.736 49.4953L44.184 49.8793C44.3006 49.9025 44.3589 49.9665 44.3589 50.0713C44.3589 50.2458 44.3239 50.4378 44.254 50.6473C43.9742 51.4618 43.4671 52.096 42.7327 52.5498C42.01 53.0036 41.1706 53.2305 40.2148 53.2305ZM49.5719 53.2305C48.5228 53.2305 47.631 52.9513 46.8966 52.3927C46.1622 51.8342 45.6726 51.0778 45.4278 50.1236C45.2879 49.6465 45.218 49.1229 45.218 48.5527C45.218 47.9127 45.2938 47.3484 45.4453 46.8596C45.7134 45.9404 46.2089 45.2247 46.9316 44.7127C47.666 44.1891 48.5519 43.9273 49.5894 43.9273C50.6153 43.9273 51.4837 44.1891 52.1948 44.7127C52.9059 45.2247 53.4013 45.9345 53.681 46.8422C53.8442 47.3658 53.9258 47.9244 53.9258 48.5178C53.9258 49.0531 53.8618 49.5651 53.7335 50.0538C53.4887 51.0313 52.9991 51.8051 52.2647 52.3753C51.5303 52.9454 50.6327 53.2305 49.5719 53.2305ZM49.5719 50.752C49.91 50.752 50.1898 50.6473 50.4113 50.4378C50.6327 50.2167 50.7959 49.92 50.9009 49.5476C50.9708 49.2451 51.0058 48.9134 51.0058 48.5527C51.0058 48.2036 50.965 47.8662 50.8834 47.5403C50.7901 47.1796 50.6327 46.9004 50.4113 46.7025C50.1898 46.5047 49.91 46.4058 49.5719 46.4058C48.8958 46.4058 48.4529 46.784 48.243 47.5403C48.1731 47.8196 48.1381 48.1571 48.1381 48.5527C48.1381 48.9134 48.1731 49.2451 48.243 49.5476C48.3363 49.92 48.4937 50.2167 48.7151 50.4378C48.9483 50.6473 49.2339 50.752 49.5719 50.752ZM57.2021 53.0909C57.0856 53.0909 57.0098 53.0327 56.9748 52.9164L54.2296 44.2938C54.2179 44.2705 54.2121 44.2414 54.2121 44.2065C54.2121 44.1018 54.2762 44.0494 54.4044 44.0494H57.1322C57.2604 44.0494 57.342 44.1076 57.377 44.224L58.531 49.024C58.5427 49.0589 58.5602 49.0764 58.5835 49.0764C58.6068 49.0764 58.6243 49.0589 58.636 49.024L59.8075 44.224C59.8425 44.1076 59.9241 44.0494 60.0523 44.0494L62.7626 44.0844C62.8325 44.0844 62.885 44.1076 62.92 44.1542C62.9549 44.1891 62.9608 44.2473 62.9374 44.3287L60.2097 52.9164C60.1747 53.0327 60.0989 53.0909 59.9824 53.0909H57.2021ZM71.7161 47.7847C71.7744 48.1338 71.7918 48.5934 71.7685 49.1636C71.7569 49.3033 71.6811 49.3731 71.5412 49.3731H66.2081C66.1848 49.3731 66.1614 49.3847 66.1381 49.408C66.1148 49.4196 66.109 49.4371 66.1206 49.4604C66.144 49.5884 66.2022 49.7571 66.2955 49.9665C66.4354 50.2109 66.6452 50.4087 66.925 50.56C67.2048 50.7113 67.5486 50.7869 67.9566 50.7869C68.691 50.7869 69.2681 50.5484 69.6877 50.0713C69.7344 50.0131 69.7868 49.984 69.8451 49.984C69.9034 49.984 69.95 50.0073 69.985 50.0538L71.3314 51.5898C71.378 51.6247 71.4013 51.6713 71.4013 51.7294C71.4013 51.776 71.378 51.8225 71.3314 51.8691C70.9234 52.3113 70.4163 52.6487 69.8101 52.8814C69.2156 53.1142 68.5628 53.2305 67.8517 53.2305C66.7909 53.2305 65.8875 53.0036 65.1414 52.5498C64.407 52.0844 63.8766 51.4385 63.5502 50.6124C63.3054 50.0305 63.183 49.3033 63.183 48.4305C63.183 47.8254 63.2763 47.2436 63.4628 46.6851C63.7659 45.824 64.2613 45.1491 64.9491 44.6604C65.6485 44.16 66.4762 43.9098 67.4321 43.9098C68.2015 43.9098 68.8892 44.0785 69.4954 44.416C70.1016 44.7418 70.5912 45.2014 70.9642 45.7949C71.3489 46.3767 71.5995 47.04 71.7161 47.7847ZM67.4321 46.4058C66.8259 46.4058 66.4237 46.6909 66.2256 47.2611C66.1789 47.3891 66.1498 47.5113 66.1381 47.6276C66.1148 47.6858 66.1381 47.7149 66.2081 47.7149H68.691C68.7377 47.7149 68.761 47.6916 68.761 47.6451C68.761 47.552 68.7377 47.4356 68.691 47.296C68.6094 47.0051 68.4579 46.784 68.2364 46.6327C68.0266 46.4814 67.7585 46.4058 67.4321 46.4058ZM81.9593 40.9949C82.0176 40.9134 82.0875 40.8727 82.1691 40.8727H82.7636C82.8802 40.8727 82.9385 40.9309 82.9385 41.0473V52.9164C82.9385 53.0327 82.8802 53.0909 82.7636 53.0909H82.1866C82.07 53.0909 82.0117 53.0327 82.0117 52.9164V42.6705C82.0117 42.6356 82.0001 42.6182 81.9768 42.6182C81.9534 42.6065 81.936 42.6182 81.9243 42.6531L78.8468 47.4007C78.7885 47.4822 78.7186 47.5229 78.637 47.5229H78.3397C78.2581 47.5229 78.1882 47.4822 78.1299 47.4007L75.0174 42.6705C75.0058 42.6356 74.9883 42.624 74.965 42.6356C74.9417 42.6473 74.93 42.6705 74.93 42.7054V52.9164C74.93 53.0327 74.8717 53.0909 74.7552 53.0909H74.1781C74.0616 53.0909 74.0033 53.0327 74.0033 52.9164V41.0473C74.0033 40.9309 74.0616 40.8727 74.1781 40.8727H74.7901C74.8717 40.8727 74.9417 40.9134 75 40.9949L78.4272 46.2313C78.4388 46.2429 78.4563 46.2487 78.4796 46.2487C78.5029 46.2487 78.5204 46.2429 78.5321 46.2313L81.9593 40.9949ZM89.178 44.1542C90.2038 44.1542 90.9848 44.4218 91.521 44.9571C92.0573 45.4807 92.3254 46.1905 92.3254 47.0865V52.9164C92.3254 53.0327 92.2671 53.0909 92.1505 53.0909H91.5735C91.4569 53.0909 91.3987 53.0327 91.3987 52.9164V52.096C91.3987 52.0727 91.387 52.0553 91.3637 52.0436C91.352 52.032 91.3345 52.0378 91.3112 52.0611C91.0081 52.4451 90.6118 52.736 90.1222 52.9338C89.6442 53.1316 89.108 53.2305 88.5135 53.2305C87.7092 53.2305 87.0272 53.0269 86.4677 52.6196C85.9081 52.2124 85.6284 51.5898 85.6284 50.752C85.6284 49.8909 85.9489 49.2102 86.5901 48.7098C87.2312 48.2094 88.1113 47.9593 89.2304 47.9593H91.3287C91.3753 47.9593 91.3987 47.936 91.3987 47.8894V47.104C91.3987 46.4524 91.2121 45.9345 90.8391 45.5505C90.4777 45.1665 89.9182 44.9745 89.1605 44.9745C88.566 44.9745 88.0764 45.0967 87.6917 45.3411C87.307 45.5854 87.068 45.9113 86.9748 46.3185C86.9398 46.4349 86.8699 46.4873 86.7649 46.4756L86.1529 46.3884C86.0247 46.3651 85.9723 46.3185 85.9956 46.2487C86.1005 45.6204 86.4385 45.1142 87.0097 44.7302C87.5926 44.3462 88.3153 44.1542 89.178 44.1542ZM88.6709 52.4276C89.4053 52.4276 90.0406 52.2473 90.5768 51.8865C91.1247 51.5258 91.3987 51.0254 91.3987 50.3854V48.7971C91.3987 48.7505 91.3753 48.7273 91.3287 48.7273H89.3178C88.4902 48.7273 87.8199 48.9018 87.307 49.2509C86.8057 49.6 86.5551 50.0829 86.5551 50.6996C86.5551 51.2698 86.7533 51.7004 87.1496 51.9913C87.546 52.2822 88.053 52.4276 88.6709 52.4276ZM95.8196 42.5309C95.5632 42.5309 95.3533 42.4494 95.1901 42.2865C95.0269 42.1236 94.9453 41.9142 94.9453 41.6582C94.9453 41.4022 95.0269 41.1927 95.1901 41.0298C95.3533 40.8669 95.5632 40.7854 95.8196 40.7854C96.0761 40.7854 96.2859 40.8669 96.4491 41.0298C96.6123 41.1927 96.6939 41.4022 96.6939 41.6582C96.6939 41.9142 96.6123 42.1236 96.4491 42.2865C96.2859 42.4494 96.0761 42.5309 95.8196 42.5309ZM95.4874 53.0734C95.3708 53.0734 95.3125 53.0153 95.3125 52.8989V44.4509C95.3125 44.3345 95.3708 44.2764 95.4874 44.2764H96.0644C96.181 44.2764 96.2393 44.3345 96.2393 44.4509V52.8989C96.2393 53.0153 96.181 53.0734 96.0644 53.0734H95.4874ZM99.7517 53.0909C99.6351 53.0909 99.5769 53.0327 99.5769 52.9164V41.0473C99.5769 40.9309 99.6351 40.8727 99.7517 40.8727H100.329C100.445 40.8727 100.504 40.9309 100.504 41.0473V52.9164C100.504 53.0327 100.445 53.0909 100.329 53.0909H99.7517Z" fill="#2D2D2D"/>
<mask id="mask0_76_72" style="mask-type:luminance" maskUnits="userSpaceOnUse" x="32" y="0" width="38" height="35">
<path d="M32.9296 4.76685H34.3548C34.5862 4.76742 34.8079 4.85941 34.9714 5.02271C35.1351 5.18602 35.2272 5.40735 35.2277 5.6383V7.0609C35.2269 7.29178 35.1347 7.51295 34.9711 7.67615C34.8077 7.83942 34.5861 7.93149 34.3548 7.93236H32.9296C32.6983 7.93178 32.4766 7.83978 32.313 7.67651C32.1494 7.51316 32.0572 7.29185 32.0566 7.0609V5.63297C32.0586 5.40295 32.1514 5.18298 32.3148 5.02082C32.4783 4.85867 32.6992 4.7674 32.9296 4.76685ZM39.871 7.66313H41.683C41.9766 7.66371 42.258 7.78036 42.4655 7.98756C42.6731 8.19476 42.79 8.47564 42.7905 8.76865V10.5775C42.79 10.8705 42.6731 11.1514 42.4655 11.3586C42.258 11.5658 41.9766 11.6825 41.683 11.6831H39.871C39.5774 11.6825 39.296 11.5658 39.0884 11.3586C38.8809 11.1514 38.764 10.8705 38.7635 10.5775V8.76865C38.7631 8.62313 38.7914 8.47891 38.8468 8.34429C38.9022 8.20967 38.9838 8.08727 39.0866 7.98415C39.1894 7.88095 39.3117 7.79905 39.4463 7.74305C39.5808 7.68705 39.7251 7.65811 39.871 7.65782V7.66313ZM35.6904 16.1977H38.6441C38.882 16.1977 39.1177 16.2445 39.3375 16.3354C39.5574 16.4263 39.7571 16.5596 39.9254 16.7276C40.0937 16.8955 40.2271 17.0949 40.3182 17.3143C40.4093 17.5338 40.4562 17.769 40.4562 18.0065V20.9561C40.4562 21.4358 40.2652 21.8959 39.9254 22.2351C39.5856 22.5743 39.1247 22.7649 38.6441 22.7649H35.6904C35.2098 22.7649 34.7489 22.5743 34.4091 22.2351C34.0692 21.8959 33.8783 21.4358 33.8783 20.9561V18.0034C33.8792 17.5242 34.0705 17.0649 34.4102 16.7264C34.75 16.3879 35.2103 16.1977 35.6904 16.1977ZM47.7162 11.1745H53.3763C54.2948 11.1772 55.1749 11.5427 55.8243 12.1911C56.4738 12.8393 56.8399 13.7178 56.8427 14.6347V20.2847C56.8402 21.2016 56.4741 22.0803 55.8246 22.7287C55.1751 23.377 54.2949 23.7424 53.3763 23.7449H47.7162C46.7978 23.7421 45.9176 23.3767 45.2682 22.7283C44.6187 22.08 44.2526 21.2015 44.2498 20.2847V14.6347C44.2526 13.7175 44.619 12.8386 45.269 12.1903C45.9189 11.5419 46.7995 11.1767 47.7184 11.1745H47.7162ZM43.4717 0H52.1057C56.721 0.0359655 61.1351 1.89136 64.386 5.16188C67.6369 8.43236 69.4611 12.8529 69.4611 17.4602C69.4611 22.0675 67.6369 26.488 64.386 29.7585C61.1351 33.029 56.721 34.8844 52.1057 34.9204H33.3453V28.2479H52.1057C54.9533 28.2196 57.6747 27.0706 59.6782 25.0506C61.6819 23.0306 62.8059 20.3028 62.8059 17.4602C62.8059 14.6175 61.6819 11.8897 59.6782 9.86975C57.6747 7.84975 54.9533 6.70076 52.1057 6.67253H43.4717V0Z" fill="white"/>
</mask>
<g mask="url(#mask0_76_72)">
<path d="M69.1838 0.340546H32.0566V35.6083H69.1838V0.340546Z" fill="#E75A5A"/>
<path d="M50.6195 17.546L43.4336 14.1985V12.7639H44.6312V13.7204L50.6195 16.5896L56.6078 13.7204V12.7639H57.8054V14.1985L50.6195 17.546Z" fill="white"/>
</g>
</svg>
